<svg width="800" height="334" xmlns="http://www.w3.org/2000/svg" clip-rule="evenodd" fill-rule="evenodd" stroke-linecap="round" stroke-linejoin="round" stroke-miterlimit="1.5"><path fill="#22272e" d="M0 0h800v334H0z"/><path d="M801.383 36.704l5.025 6.681 58.953-.362" fill="none" stroke="#e88430" stroke-width="2.13" stroke-linejoin="bevel" transform="matrix(8.12833 0 0 8.12874 -6293.375 -59.48)"/><circle cx="704.656" cy="16" r="14" fill-opacity=".75" stroke="#000" stroke-width="1.18" transform="matrix(6.91164 0 0 6.91199 -4706.689 56.16)"/><path d="M18.091 37.865l1.685 2.154-.276 2.21c-1.297.358-2.09.454-3.5.454-8.444 0-15.299-6.855-15.299-15.298 0-8.444 6.855-15.299 15.299-15.299 8.444 0 15.299 6.855 15.299 15.299 0 2.562-.283 4.068-1.398 6.19l-2.384.085-1.695-2.166c.796-1.498.898-2.297.898-4.109 0-5.917-4.803-10.721-10.72-10.721-5.917 0-10.72 4.804-10.72 10.721 0 5.916 4.803 10.72 10.72 10.72.919 0 1.239-.022 2.091-.24z" fill="#fff" stroke="#000" transform="matrix(8.12833 0 0 8.12874 33.588 -55.85)"/><path d="M704.656 16l-5.399 3.178-3.965.02-.085 8.95" fill="none" stroke="#e88430" stroke-width="3.36" stroke-linejoin="bevel" transform="matrix(6.02179 0 0 6.0221 -4079.645 70.398)"/><path d="M704.656 16l-5.399 3.178-3.965.02-.085 8.95" fill="none" stroke="#e88430" stroke-width="3.36" stroke-linejoin="bevel" transform="matrix(6.02179 0 0 -6.0221 -4079.645 263.105)"/><path d="M704.656 16l-5.399 3.178-3.965.02-.085 8.95" fill="none" stroke="#e88430" stroke-width="3.36" stroke-linejoin="bevel" transform="matrix(-6.02179 0 0 6.0221 4406.928 70.398)"/><path d="M704.656 16l-5.399 3.178-3.965.02-.085 8.95" fill="none" stroke="#e88430" stroke-width="3.36" stroke-linejoin="bevel" transform="matrix(-6.02179 0 0 -6.0221 4406.928 263.105)"/><circle cx="704.918" cy="16.262" r="16.262" fill="#e88430" transform="matrix(1.49952 0 0 1.4996 -950.297 69.207)"/><circle cx="704.918" cy="16.262" r="16.262" fill="#e88430" transform="matrix(1.49952 0 0 1.4996 -836.5 69.207)"/><circle cx="704.918" cy="16.262" r="16.262" fill="#e88430" transform="matrix(1.49952 0 0 1.4996 -950.297 215.524)"/><circle cx="704.918" cy="16.262" r="16.262" fill="#e88430" transform="matrix(1.99863 0 0 1.99873 -1185.458 208.667)"/><g transform="matrix(8.59912 0 0 8.59955 33.251 -70.072)"><circle cx="22.114" cy="36.193" r="3.21" fill="#fff"/><clipPath id="prefix__a"><circle cx="22.114" cy="36.193" r="3.21"/></clipPath><g clip-path="url(#prefix__a)"><circle cx="22.114" cy="36.193" r="3.21" fill="#fff"/></g></g><g><path d="M96.259 11.899a3.148 3.148 0 011.453-1.118c.272-.102.567-.153.887-.153.698 0 1.229.151 1.592.451.364.3.613.7.749 1.199.135.5.203 1.054.203 1.665v3.722a.87.87 0 01-.247.632.833.833 0 01-.625.254.833.833 0 01-.625-.254.87.87 0 01-.247-.632v-3.722c0-.32-.039-.608-.117-.865a1.184 1.184 0 00-.421-.618c-.204-.155-.494-.232-.872-.232-.369 0-.684.077-.945.232a1.501 1.501 0 00-.589.618 1.876 1.876 0 00-.196.865v3.722a.874.874 0 01-.247.632.835.835 0 01-.626.254.833.833 0 01-.625-.254.874.874 0 01-.247-.632V8.68c0-.252.083-.462.247-.632a.833.833 0 01.625-.254c.252 0 .461.084.626.254.164.17.247.38.247.632z" fill-rule="nonzero" stroke="#fff" stroke-width=".3" stroke-linecap="butt" stroke-miterlimit="2" transform="matrix(8.12833 0 0 8.12872 -445.967 0)"/><path d="M799.334 14.343c0 .656-.146 1.234-.438 1.734-.292.5-.684.89-1.176 1.17-.492.28-1.042.42-1.65.42-.608 0-1.158-.14-1.65-.42a3.144 3.144 0 01-1.176-1.17c-.292-.5-.438-1.078-.438-1.734 0-.656.146-1.234.438-1.734a3.19 3.19 0 012.826-1.602 3.19 3.19 0 012.826 1.602c.292.5.438 1.078.438 1.734zm-1.44 0c0-.408-.082-.762-.246-1.062a1.83 1.83 0 00-.66-.702 1.731 1.731 0 00-.918-.252c-.336 0-.642.084-.918.252a1.83 1.83 0 00-.66.702c-.164.3-.246.654-.246 1.062 0 .4.082.75.246 1.05.164.3.384.534.66.702.276.168.582.252.918.252.336 0 .642-.084.918-.252a1.83 1.83 0 00.66-.702c.164-.3.246-.65.246-1.05z" fill-rule="nonzero" stroke="#fff" stroke-width=".25" stroke-linecap="butt" stroke-miterlimit="2" transform="matrix(9.84713 0 0 9.8476 -7412.975 -22)"/><path d="M119.967 15.506l1.558-4.18c.116-.368.397-.552.843-.552.223 0 .417.085.582.254.164.17.247.385.247.647a1 1 0 01-.015.182.761.761 0 01-.044.152l-2.224 5.99a.802.802 0 01-.363.443.826.826 0 01-.553.109c-.329-.019-.576-.203-.741-.552l-1.242-3.576-1.171 3.576c-.165.349-.412.533-.742.552a.82.82 0 01-.545-.109.796.796 0 01-.371-.443l-2.224-5.99a.962.962 0 01.175-.959c.155-.184.368-.276.639-.276.185 0 .349.043.495.131a.7.7 0 01.305.421l1.572 4.261 1.146-3.112c.155-.359.422-.538.8-.538.213 0 .376.046.487.138a.955.955 0 01.269.4z" fill-rule="nonzero" stroke="#fff" stroke-width=".3" stroke-linecap="butt" stroke-miterlimit="2" transform="matrix(8.12833 0 0 8.12872 -445.967 0)"/><path d="M812.426 16.815a.72.72 0 01-.204.522.689.689 0 01-.516.21.689.689 0 01-.516-.21.72.72 0 01-.204-.522v-4.956a.72.72 0 01.204-.522.689.689 0 01.516-.21c.208 0 .38.07.516.21a.72.72 0 01.204.522zm-.732-6.468c-.272 0-.464-.044-.576-.132-.112-.088-.168-.244-.168-.468v-.228c0-.232.062-.39.186-.474.124-.084.314-.126.57-.126.28 0 .476.044.588.132.112.088.168.244.168.468v.228c0 .232-.06.39-.18.474-.12.084-.316.126-.588.126zM816.122 17.667c0 .456-.088.85-.264 1.182-.176.332-.412.59-.708.774a1.848 1.848 0 01-.996.276.636.636 0 01-.486-.198.668.668 0 01-.186-.474v-.132c0-.176.058-.316.174-.42.116-.104.262-.184.438-.24.192-.064.328-.154.408-.27a.917.917 0 00.15-.414c.02-.16.03-.328.03-.504v-5.388a.72.72 0 01.204-.522.689.689 0 01.516-.21c.208 0 .38.07.516.21a.72.72 0 01.204.522zm-.744-7.32c-.272 0-.464-.044-.576-.132-.112-.088-.168-.244-.168-.468v-.228c0-.232.062-.39.186-.474.124-.084.314-.126.57-.126.28 0 .476.044.588.132.112.088.168.244.168.468v.228c0 .232-.06.39-.18.474-.12.084-.316.126-.588.126z" fill-rule="nonzero" stroke="#fff" stroke-width=".25" stroke-linecap="butt" stroke-miterlimit="2" transform="matrix(9.84713 0 0 9.8476 -7412.975 -22)"/><path d="M139.609 11.534V8.68c0-.252.083-.462.248-.632a.831.831 0 01.625-.254c.252 0 .46.082.625.247a.863.863 0 01.247.639v8.985a.87.87 0 01-.247.632.833.833 0 01-.625.254.831.831 0 01-.625-.254.863.863 0 01-.247-.616 3.112 3.112 0 01-.437.391 3.382 3.382 0 01-.821.443 2.836 2.836 0 01-1.025.182 3.323 3.323 0 01-1.817-.516 3.628 3.628 0 01-1.287-1.425c-.315-.606-.472-1.301-.472-2.086 0-.795.157-1.495.472-2.101a3.677 3.677 0 011.272-1.425 3.205 3.205 0 011.774-.516 3.432 3.432 0 012.057.669c.104.079.199.158.283.237zm-2.064 5.564c.427 0 .8-.107 1.12-.32.319-.213.569-.504.748-.873.18-.368.269-.78.269-1.235 0-.465-.089-.882-.269-1.25a2.165 2.165 0 00-.748-.873 1.973 1.973 0 00-1.12-.319c-.417 0-.785.106-1.105.319-.32.214-.569.504-.748.873-.18.368-.269.785-.269 1.25 0 .455.089.867.269 1.235.179.369.428.66.748.873.32.213.688.32 1.105.32z" fill-rule="nonzero" stroke="#fff" stroke-width=".3" stroke-linecap="butt" stroke-miterlimit="2" transform="matrix(8.12833 0 0 8.12872 -445.967 0)"/><path d="M826.994 17.535c-.232 0-.41-.062-.534-.186-.124-.124-.186-.302-.186-.534v-.204c0-.232.062-.41.186-.534.124-.124.302-.186.534-.186h.156c.232 0 .41.062.534.186.124.124.186.302.186.534v.204c0 .232-.062.41-.186.534-.124.124-.302.186-.534.186z" fill-rule="nonzero" stroke="#fff" stroke-width=".25" stroke-linecap="butt" stroke-miterlimit="2" transform="matrix(9.84713 0 0 9.8476 -7412.975 -22)"/><path d="M96.259 24.444a3.599 3.599 0 01.741-.726c.223-.164.475-.298.756-.399.281-.102.586-.153.916-.153.717 0 1.262.15 1.635.451.374.3.63.7.771 1.199.14.499.211 1.054.211 1.664v3.722a.873.873 0 01-.247.632.836.836 0 01-.626.255.834.834 0 01-.625-.255.873.873 0 01-.247-.632V26.48c0-.319-.041-.608-.123-.865a1.202 1.202 0 00-.444-.617c-.213-.155-.518-.233-.916-.233-.387 0-.714.078-.981.233-.266.155-.47.361-.611.617a1.78 1.78 0 00-.21.865v3.722a.873.873 0 01-.247.632.836.836 0 01-.626.255.834.834 0 01-.625-.255.873.873 0 01-.247-.632v-6.004c0-.252.083-.463.247-.632a.834.834 0 01.625-.255c.252 0 .461.085.626.255.164.169.247.38.247.632z" fill-rule="nonzero" stroke="#fff" stroke-width=".3" stroke-linecap="butt" stroke-miterlimit="2" transform="matrix(8.12833 0 0 8.12872 -445.967 0)"/><path d="M105.867 23.166h.03c.494 0 .962.102 1.403.305.441.204.831.482 1.17.836.339.354.608.763.807 1.228.199.466.298.96.298 1.483a.748.748 0 01-.276.567.923.923 0 01-.611.218h-4.799c.053.268.143.507.271.72a2.233 2.233 0 001.941 1.112c.358 0 .644-.029.857-.087.213-.058.386-.129.516-.211.131-.082.25-.153.357-.211a1.11 1.11 0 01.494-.131c.213 0 .39.073.53.218a.709.709 0 01.211.509c0 .262-.135.499-.407.713-.252.213-.606.399-1.061.559-.456.16-.926.24-1.41.24-.824 0-1.539-.172-2.144-.516a3.567 3.567 0 01-1.396-1.403c-.325-.591-.487-1.26-.487-2.006 0-.872.177-1.616.531-2.231a3.746 3.746 0 011.388-1.418 3.588 3.588 0 011.787-.494zm-1.963 3.184a2.47 2.47 0 01.089-.335c.106-.31.252-.557.436-.741.184-.184.402-.315.654-.393a2.77 2.77 0 01.814-.116c.3 0 .584.065.85.196.267.131.49.308.669.531.18.223.279.475.298.756v.102z" stroke="#fff" stroke-width=".3" stroke-linejoin="bevel" transform="matrix(8.12833 0 0 8.12872 -445.967 0)"/><path d="M111.058 23.457v-.931c0-.252.085-.463.254-.632a.86.86 0 01.633-.255c.252 0 .458.085.617.255.16.169.24.38.24.632v.931h1.033c.232 0 .426.077.581.232a.79.79 0 01.233.582.746.746 0 01-.233.559.8.8 0 01-.581.226h-1.033v3.939c0 .136.027.248.08.335.054.087.126.15.218.189a.758.758 0 00.298.058.763.763 0 00.32-.066.82.82 0 01.335-.065c.135 0 .259.063.37.189.112.126.167.3.167.523 0 .272-.147.495-.443.669a1.838 1.838 0 01-.952.262c-.204 0-.429-.017-.676-.051a1.826 1.826 0 01-.698-.247 1.508 1.508 0 01-.545-.604c-.145-.271-.218-.644-.218-1.119v-4.012h-.669a.79.79 0 01-.581-.233.79.79 0 01-.233-.581c0-.223.078-.41.233-.56a.803.803 0 01.581-.225zM122.366 28.044l1.558-4.18c.116-.369.397-.553.843-.553.223 0 .416.085.581.255a.888.888 0 01.247.647c0 .067-.005.128-.014.181a.77.77 0 01-.044.153l-2.224 5.989a.808.808 0 01-.363.444.826.826 0 01-.553.109c-.329-.02-.577-.204-.741-.553l-1.243-3.576-1.171 3.576c-.164.349-.411.533-.741.553a.82.82 0 01-.545-.109.801.801 0 01-.371-.444l-2.224-5.989a.966.966 0 01.174-.96c.155-.184.369-.276.64-.276.184 0 .349.044.494.131a.703.703 0 01.306.422l1.571 4.261 1.147-3.113c.155-.358.422-.538.8-.538.213 0 .375.046.487.138a.962.962 0 01.269.4z" fill-rule="nonzero" stroke="#fff" stroke-width=".3" stroke-linecap="butt" stroke-miterlimit="2" transform="matrix(8.12833 0 0 8.12872 -445.967 0)"/><path d="M817.898 24.692c0 .656-.146 1.234-.438 1.734-.292.5-.684.89-1.176 1.17-.492.28-1.042.42-1.65.42-.608 0-1.158-.14-1.65-.42a3.144 3.144 0 01-1.176-1.17c-.292-.5-.438-1.078-.438-1.734 0-.656.146-1.234.438-1.734a3.19 3.19 0 012.826-1.602 3.19 3.19 0 012.826 1.602c.292.5.438 1.078.438 1.734zm-1.44 0c0-.408-.082-.762-.246-1.062a1.83 1.83 0 00-.66-.702 1.731 1.731 0 00-.918-.252c-.336 0-.642.084-.918.252a1.83 1.83 0 00-.66.702c-.164.3-.246.654-.246 1.062 0 .4.082.75.246 1.05.164.3.384.534.66.702.276.168.582.252.918.252.336 0 .642-.084.918-.252a1.83 1.83 0 00.66-.702c.164-.3.246-.65.246-1.05z" fill-rule="nonzero" stroke="#fff" stroke-width=".25" stroke-linecap="butt" stroke-miterlimit="2" transform="matrix(9.84713 0 0 9.8476 -7412.975 -22)"/><path d="M136.484 24.393c.088-.153.193-.294.312-.42.17-.18.361-.33.575-.451.213-.121.441-.211.683-.269.242-.058.485-.087.727-.087.291 0 .535.082.734.247.199.165.298.359.298.582 0 .319-.082.55-.247.69a.81.81 0 01-.538.211c-.184 0-.351-.034-.502-.102a1.238 1.238 0 00-.516-.102c-.174 0-.351.041-.53.124-.18.082-.344.211-.495.385-.15.175-.271.39-.363.647-.092.257-.138.56-.138.909v3.445a.869.869 0 01-.247.632.834.834 0 01-.625.255.832.832 0 01-.625-.255.87.87 0 01-.248-.632v-6.004a.87.87 0 01.248-.632.832.832 0 01.625-.255c.252 0 .46.085.625.255.165.169.247.38.247.632zM142.357 28.673v1.529a.869.869 0 01-.247.632.834.834 0 01-.625.255.832.832 0 01-.625-.255.869.869 0 01-.247-.632v-8.984c0-.252.082-.463.247-.633a.835.835 0 01.625-.254c.252 0 .46.085.625.254.165.17.247.381.247.633v5.372l3.111-3.003a.878.878 0 01.64-.276c.223 0 .416.092.581.276.165.185.247.364.247.538 0 .233-.116.451-.349.655l-2.191 2.016 2.54 2.766a.925.925 0 01.277.655c0 .252-.1.457-.298.617-.199.16-.395.24-.589.24a.832.832 0 01-.64-.29l-2.614-2.77z" fill-rule="nonzero" stroke="#fff" stroke-width=".3" stroke-linecap="butt" stroke-miterlimit="2" transform="matrix(8.12833 0 0 8.12872 -445.967 0)"/></g><defs id="prefix__defs175"><linearGradient id="prefix___Linear2" x1="0" y1="0" x2="1" y2="0" gradientUnits="userSpaceOnUse" gradientTransform="rotate(90 351.549 353.107) scale(28.8833)"><stop offset="0" id="prefix__stop170" stop-color="#e88430" stop-opacity="1"/><stop offset="1" id="prefix__stop172" stop-color="#c25600" stop-opacity="1"/></linearGradient></defs></svg>