<?xml version="1.0" encoding="UTF-8"?>
<svg width="128" height="128" viewBox="0 0 128 128" version="1.1" xml:space="preserve"
  style="clip-rule:evenodd;fill-rule:evenodd;stroke-linecap:round;stroke-linejoin:round;stroke-miterlimit:1.5"
  xmlns="http://www.w3.org/2000/svg" xmlns:svg="http://www.w3.org/2000/svg" xmlns:serif="http://www.serif.com/">
  <defs>
    <linearGradient id="coin-grad" x1="0" y1="0" x2="1" y2="0" gradientUnits="userSpaceOnUse"
      gradientTransform="matrix(0,28.8833,-28.8833,0,704.656,1.55834)">
      <stop offset="0" style="stop-color:rgb(232,132,48);stop-opacity:1" />
      <stop offset="1" style="stop-color:rgb(194,86,0);stop-opacity:1" />
    </linearGradient>
  </defs>
  <g id="Coin" transform="scale(4)">
    <g transform="matrix(1.10791,0,0,1.10791,-764.692,-1.72649)">
      <circle cx="704.65601" cy="16" r="14" style="fill:url(#coin-grad)" />
    </g>
    <g transform="matrix(1.08611,0,0,1.08611,-1.37779,-50.1865)">
      <path
        d="m 20.962,55.283 c -0.836,-0.451 -1.404,-1.335 -1.404,-2.35 0,-1.473 1.196,-2.669 2.669,-2.669 1.473,0 2.669,1.196 2.669,2.669 0,1.033 -0.589,1.93 -1.449,2.373 l -0.033,3.537 -1.237,1.232 c 0,0 -2.277,0.011 -2.277,0.011 l -1.45,0.853 1.45,0.853 2.277,0.011 1.237,1.232 0.033,3.537 c 0.86,0.443 1.449,1.34 1.449,2.373 0,1.473 -1.196,2.669 -2.669,2.669 -1.473,0 -2.669,-1.196 -2.669,-2.669 0,-1.015 0.568,-1.899 1.404,-2.35 L 20.94,64.283 19.552,64.276 18.928,64.105 16,62.381 l -2.928,1.724 -0.624,0.171 c 0,0 -1.388,0.007 -1.388,0.007 l -0.022,2.312 c 0.836,0.451 1.404,1.335 1.404,2.35 0,1.473 -1.196,2.669 -2.669,2.669 -1.473,0 -2.669,-1.196 -2.669,-2.669 0,-1.033 0.589,-1.93 1.449,-2.373 l 0.033,-3.537 1.237,-1.232 c 0,0 2.277,-0.011 2.277,-0.011 L 13.55,60.939 12.1,60.086 9.823,60.075 8.586,58.843 8.553,55.306 c -0.86,-0.443 -1.449,-1.34 -1.449,-2.373 0,-1.473 1.196,-2.669 2.669,-2.669 1.473,0 2.669,1.196 2.669,2.669 0,1.015 -0.568,1.899 -1.404,2.35 l 0.022,2.312 1.388,0.007 0.624,0.171 2.928,1.724 2.928,-1.724 0.624,-0.171 c 0,0 1.388,-0.007 1.388,-0.007 z"
        style="fill:#ffffff" />
    </g>
  </g>
</svg>