<?xml version="1.0" encoding="UTF-8" standalone="no"?>
<!DOCTYPE svg PUBLIC "-//W3C//DTD SVG 1.1//EN" "http://www.w3.org/Graphics/SVG/1.1/DTD/svg11.dtd">
<svg width="100%" height="100%" viewBox="0 0 144 77" version="1.1" xmlns="http://www.w3.org/2000/svg" xmlns:xlink="http://www.w3.org/1999/xlink" xml:space="preserve" xmlns:serif="http://www.serif.com/" style="fill-rule:evenodd;clip-rule:evenodd;stroke-linecap:round;stroke-linejoin:round;stroke-miterlimit:1.5;">
    <rect id="Icon" x="0" y="0" width="32" height="32" style="fill:none;"/>
    <g id="Icon1" serif:id="Icon">
        <g>
            <g transform="matrix(0.850315,0,0,0.850315,-583.18,2.39496)">
                <circle cx="704.656" cy="16" r="14" style="fill-opacity:0.75;stroke:black;stroke-width:1.18px;"/>
            </g>
            <g transform="matrix(1,0,0,1,0,-11.3845)">
                <path d="M18.091,37.865L19.776,40.019L19.5,42.229C18.203,42.587 17.41,42.683 16,42.683C7.556,42.683 0.701,35.828 0.701,27.385C0.701,18.941 7.556,12.086 16,12.086C24.444,12.086 31.299,18.941 31.299,27.385C31.299,29.947 31.016,31.453 29.901,33.575L27.517,33.66L25.822,31.494C26.618,29.996 26.72,29.197 26.72,27.385C26.72,21.468 21.917,16.664 16,16.664C10.083,16.664 5.28,21.468 5.28,27.385C5.28,33.301 10.083,38.105 16,38.105C16.919,38.105 17.239,38.083 18.091,37.865Z" style="fill:white;stroke:black;stroke-width:1px;"/>
            </g>
            <g transform="matrix(0.74084,0,0,0.74084,-506.037,4.14656)">
                <path d="M704.656,16L699.257,19.178L695.292,19.198L695.207,28.148" style="fill:none;stroke:rgb(232,132,48);stroke-width:3.36px;stroke-linejoin:bevel;"/>
            </g>
            <g transform="matrix(0.74084,0,0,-0.74084,-506.037,27.8534)">
                <path d="M704.656,16L699.257,19.178L695.292,19.198L695.207,28.148" style="fill:none;stroke:rgb(232,132,48);stroke-width:3.36px;stroke-linejoin:bevel;"/>
            </g>
            <g transform="matrix(-0.74084,0,0,0.74084,538.037,4.14656)">
                <path d="M704.656,16L699.257,19.178L695.292,19.198L695.207,28.148" style="fill:none;stroke:rgb(232,132,48);stroke-width:3.36px;stroke-linejoin:bevel;"/>
            </g>
            <g transform="matrix(-0.74084,0,0,-0.74084,538.037,27.8534)">
                <path d="M704.656,16L699.257,19.178L695.292,19.198L695.207,28.148" style="fill:none;stroke:rgb(232,132,48);stroke-width:3.36px;stroke-linejoin:bevel;"/>
            </g>
            <g transform="matrix(0.184481,0,0,0.184481,-121.044,4)">
                <circle cx="704.918" cy="16.262" r="16.262" style="fill:rgb(232,132,48);"/>
            </g>
            <g transform="matrix(0.184481,0,0,0.184481,-107.044,4)">
                <circle cx="704.918" cy="16.262" r="16.262" style="fill:rgb(232,132,48);"/>
            </g>
            <g transform="matrix(0.184481,0,0,0.184481,-121.044,22)">
                <circle cx="704.918" cy="16.262" r="16.262" style="fill:rgb(232,132,48);"/>
            </g>
            <g id="Brand-Circle" serif:id="Brand Circle" transform="matrix(0.245884,0,0,0.245884,-149.975,21.1564)">
                <circle cx="704.918" cy="16.262" r="16.262" style="fill:rgb(232,132,48);"/>
            </g>
            <g id="Brand-Background" serif:id="Brand Background" transform="matrix(1.05792,0,0,1.05792,-0.0414246,-13.1341)">
                <circle cx="22.114" cy="36.193" r="3.21" style="fill:white;"/>
                <clipPath id="_clip1">
                    <circle cx="22.114" cy="36.193" r="3.21"/>
                </clipPath>
                <g clip-path="url(#_clip1)">
                    <circle id="Brand-Logo" serif:id="Brand Logo" cx="22.114" cy="36.193" r="3.21" style="fill:white;"/>
                </g>
            </g>
        </g>
    </g>
    <g id="Coin" transform="matrix(1,0,0,1,0,44.939)">
        <rect x="0" y="0" width="32" height="32" style="fill:none;"/>
        <g transform="matrix(1.10791,0,0,1.10791,-764.692,-1.72649)">
            <circle cx="704.656" cy="16" r="14" style="fill:url(#_Linear2);"/>
        </g>
        <g transform="matrix(1.08611,0,0,1.08611,-1.37779,-50.1865)">
            <path d="M20.962,55.283C20.126,54.832 19.558,53.948 19.558,52.933C19.558,51.46 20.754,50.264 22.227,50.264C23.7,50.264 24.896,51.46 24.896,52.933C24.896,53.966 24.307,54.863 23.447,55.306L23.414,58.843L22.177,60.075C22.177,60.075 19.9,60.086 19.9,60.086L18.45,60.939L19.9,61.792L22.177,61.803L23.414,63.035L23.447,66.572C24.307,67.015 24.896,67.912 24.896,68.945C24.896,70.418 23.7,71.614 22.227,71.614C20.754,71.614 19.558,70.418 19.558,68.945C19.558,67.93 20.126,67.046 20.962,66.595L20.94,64.283L19.552,64.276L18.928,64.105L16,62.381L13.072,64.105L12.448,64.276C12.448,64.276 11.06,64.283 11.06,64.283L11.038,66.595C11.874,67.046 12.442,67.93 12.442,68.945C12.442,70.418 11.246,71.614 9.773,71.614C8.3,71.614 7.104,70.418 7.104,68.945C7.104,67.912 7.693,67.015 8.553,66.572L8.586,63.035L9.823,61.803C9.823,61.803 12.1,61.792 12.1,61.792L13.55,60.939L12.1,60.086L9.823,60.075L8.586,58.843L8.553,55.306C7.693,54.863 7.104,53.966 7.104,52.933C7.104,51.46 8.3,50.264 9.773,50.264C11.246,50.264 12.442,51.46 12.442,52.933C12.442,53.948 11.874,54.832 11.038,55.283L11.06,57.595L12.448,57.602L13.072,57.773L16,59.497L18.928,57.773L19.552,57.602C19.552,57.602 20.94,57.595 20.94,57.595L20.962,55.283Z" style="fill:white;"/>
        </g>
    </g>
    <g id="Default-Dark" serif:id="Default Dark" transform="matrix(3.07567,0,0,1.28403,45.5684,0)">
        <rect x="0" y="0" width="32" height="32" style="fill:rgb(34,39,46);"/>
        <g transform="matrix(0.325133,0,0,0.778801,-251.735,-5.69875)">
            <path d="M801.383,36.704L806.408,43.385L865.361,43.023" style="fill:none;stroke:rgb(232,132,48);stroke-width:2.13px;stroke-linejoin:bevel;"/>
        </g>
        <g transform="matrix(0.325133,0,0,0.778801,1.34352,3.51541)">
            <g transform="matrix(0.850315,0,0,0.850315,-583.18,2.39496)">
                <circle cx="704.656" cy="16" r="14" style="fill-opacity:0.75;stroke:black;stroke-width:1.18px;"/>
            </g>
            <g transform="matrix(1,0,0,1,0,-11.3845)">
                <path d="M18.091,37.865L19.776,40.019L19.5,42.229C18.203,42.587 17.41,42.683 16,42.683C7.556,42.683 0.701,35.828 0.701,27.385C0.701,18.941 7.556,12.086 16,12.086C24.444,12.086 31.299,18.941 31.299,27.385C31.299,29.947 31.016,31.453 29.901,33.575L27.517,33.66L25.822,31.494C26.618,29.996 26.72,29.197 26.72,27.385C26.72,21.468 21.917,16.664 16,16.664C10.083,16.664 5.28,21.468 5.28,27.385C5.28,33.301 10.083,38.105 16,38.105C16.919,38.105 17.239,38.083 18.091,37.865Z" style="fill:white;stroke:black;stroke-width:1px;"/>
            </g>
            <g transform="matrix(0.74084,0,0,0.74084,-506.037,4.14656)">
                <path d="M704.656,16L699.257,19.178L695.292,19.198L695.207,28.148" style="fill:none;stroke:rgb(232,132,48);stroke-width:3.36px;stroke-linejoin:bevel;"/>
            </g>
            <g transform="matrix(0.74084,0,0,-0.74084,-506.037,27.8534)">
                <path d="M704.656,16L699.257,19.178L695.292,19.198L695.207,28.148" style="fill:none;stroke:rgb(232,132,48);stroke-width:3.36px;stroke-linejoin:bevel;"/>
            </g>
            <g transform="matrix(-0.74084,0,0,0.74084,538.037,4.14656)">
                <path d="M704.656,16L699.257,19.178L695.292,19.198L695.207,28.148" style="fill:none;stroke:rgb(232,132,48);stroke-width:3.36px;stroke-linejoin:bevel;"/>
            </g>
            <g transform="matrix(-0.74084,0,0,-0.74084,538.037,27.8534)">
                <path d="M704.656,16L699.257,19.178L695.292,19.198L695.207,28.148" style="fill:none;stroke:rgb(232,132,48);stroke-width:3.36px;stroke-linejoin:bevel;"/>
            </g>
            <g transform="matrix(0.184481,0,0,0.184481,-121.044,4)">
                <circle cx="704.918" cy="16.262" r="16.262" style="fill:rgb(232,132,48);"/>
            </g>
            <g transform="matrix(0.184481,0,0,0.184481,-107.044,4)">
                <circle cx="704.918" cy="16.262" r="16.262" style="fill:rgb(232,132,48);"/>
            </g>
            <g transform="matrix(0.184481,0,0,0.184481,-121.044,22)">
                <circle cx="704.918" cy="16.262" r="16.262" style="fill:rgb(232,132,48);"/>
            </g>
            <g id="Brand-Circle1" serif:id="Brand Circle" transform="matrix(0.245884,0,0,0.245884,-149.975,21.1564)">
                <circle cx="704.918" cy="16.262" r="16.262" style="fill:rgb(232,132,48);"/>
            </g>
            <g id="Brand-Background1" serif:id="Brand Background" transform="matrix(1.05792,0,0,1.05792,-0.0414246,-13.1341)">
                <circle cx="22.114" cy="36.193" r="3.21" style="fill:white;"/>
                <clipPath id="_clip3">
                    <circle cx="22.114" cy="36.193" r="3.21"/>
                </clipPath>
                <g clip-path="url(#_clip3)">
                    <circle id="Brand-Logo1" serif:id="Brand Logo" cx="22.114" cy="36.193" r="3.21" style="fill:white;"/>
                </g>
            </g>
        </g>
        <g transform="matrix(0.393885,0,0,0.943483,-296.519,-2.10775)">
            <g transform="matrix(0.825452,0,0,0.825452,707.517,2.23401)">
                <path d="M96.259,11.899C96.303,11.838 96.352,11.775 96.404,11.711C96.559,11.522 96.748,11.346 96.971,11.181C97.194,11.016 97.441,10.883 97.712,10.781C97.984,10.679 98.279,10.628 98.599,10.628C99.297,10.628 99.828,10.779 100.191,11.079C100.555,11.379 100.804,11.779 100.94,12.278C101.075,12.778 101.143,13.332 101.143,13.943L101.143,17.665C101.143,17.917 101.061,18.127 100.896,18.297C100.731,18.467 100.523,18.551 100.271,18.551C100.019,18.551 99.811,18.467 99.646,18.297C99.481,18.127 99.399,17.917 99.399,17.665L99.399,13.943C99.399,13.623 99.36,13.335 99.282,13.078C99.205,12.821 99.064,12.615 98.861,12.46C98.657,12.305 98.367,12.228 97.989,12.228C97.62,12.228 97.305,12.305 97.044,12.46C96.782,12.615 96.586,12.821 96.455,13.078C96.324,13.335 96.259,13.623 96.259,13.943L96.259,17.665C96.259,17.917 96.176,18.127 96.012,18.297C95.847,18.467 95.638,18.551 95.386,18.551C95.134,18.551 94.926,18.467 94.761,18.297C94.597,18.127 94.514,17.917 94.514,17.665L94.514,8.68C94.514,8.428 94.597,8.218 94.761,8.048C94.926,7.878 95.134,7.794 95.386,7.794C95.638,7.794 95.847,7.878 96.012,8.048C96.176,8.218 96.259,8.428 96.259,8.68L96.259,11.899Z" style="fill-rule:nonzero;stroke:white;stroke-width:0.3px;stroke-linecap:butt;stroke-miterlimit:2;"/>
            </g>
            <path d="M799.334,14.343C799.334,14.999 799.188,15.577 798.896,16.077C798.604,16.577 798.212,16.967 797.72,17.247C797.228,17.527 796.678,17.667 796.07,17.667C795.462,17.667 794.912,17.527 794.42,17.247C793.928,16.967 793.536,16.577 793.244,16.077C792.952,15.577 792.806,14.999 792.806,14.343C792.806,13.687 792.952,13.109 793.244,12.609C793.536,12.109 793.928,11.717 794.42,11.433C794.912,11.149 795.462,11.007 796.07,11.007C796.678,11.007 797.228,11.149 797.72,11.433C798.212,11.717 798.604,12.109 798.896,12.609C799.188,13.109 799.334,13.687 799.334,14.343ZM797.894,14.343C797.894,13.935 797.812,13.581 797.648,13.281C797.484,12.981 797.264,12.747 796.988,12.579C796.712,12.411 796.406,12.327 796.07,12.327C795.734,12.327 795.428,12.411 795.152,12.579C794.876,12.747 794.656,12.981 794.492,13.281C794.328,13.581 794.246,13.935 794.246,14.343C794.246,14.743 794.328,15.093 794.492,15.393C794.656,15.693 794.876,15.927 795.152,16.095C795.428,16.263 795.734,16.347 796.07,16.347C796.406,16.347 796.712,16.263 796.988,16.095C797.264,15.927 797.484,15.693 797.648,15.393C797.812,15.093 797.894,14.743 797.894,14.343Z" style="fill-rule:nonzero;stroke:white;stroke-width:0.25px;stroke-linecap:butt;stroke-miterlimit:2;"/>
            <g transform="matrix(0.825452,0,0,0.825452,707.517,2.23401)">
                <path d="M119.967,15.506L121.525,11.326C121.641,10.958 121.922,10.774 122.368,10.774C122.591,10.774 122.785,10.859 122.95,11.028C123.114,11.198 123.197,11.413 123.197,11.675C123.197,11.743 123.192,11.803 123.182,11.857C123.172,11.91 123.158,11.961 123.138,12.009L120.914,17.999C120.846,18.193 120.725,18.341 120.551,18.442C120.376,18.544 120.192,18.58 119.998,18.551C119.669,18.532 119.422,18.348 119.257,17.999L118.015,14.423L116.844,17.999C116.679,18.348 116.432,18.532 116.102,18.551C115.918,18.58 115.736,18.544 115.557,18.442C115.378,18.341 115.254,18.193 115.186,17.999L112.962,12.009C112.923,11.903 112.904,11.791 112.904,11.675C112.904,11.442 112.982,11.234 113.137,11.05C113.292,10.866 113.505,10.774 113.776,10.774C113.961,10.774 114.125,10.817 114.271,10.905C114.416,10.992 114.518,11.132 114.576,11.326L116.148,15.587L117.294,12.475C117.449,12.116 117.716,11.937 118.094,11.937C118.307,11.937 118.47,11.983 118.581,12.075C118.692,12.167 118.782,12.3 118.85,12.475L119.967,15.506Z" style="fill-rule:nonzero;stroke:white;stroke-width:0.3px;stroke-linecap:butt;stroke-miterlimit:2;"/>
            </g>
            <path d="M812.426,16.815C812.426,17.023 812.358,17.197 812.222,17.337C812.086,17.477 811.914,17.547 811.706,17.547C811.498,17.547 811.326,17.477 811.19,17.337C811.054,17.197 810.986,17.023 810.986,16.815L810.986,11.859C810.986,11.651 811.054,11.477 811.19,11.337C811.326,11.197 811.498,11.127 811.706,11.127C811.914,11.127 812.086,11.197 812.222,11.337C812.358,11.477 812.426,11.651 812.426,11.859L812.426,16.815ZM811.694,10.347C811.422,10.347 811.23,10.303 811.118,10.215C811.006,10.127 810.95,9.971 810.95,9.747L810.95,9.519C810.95,9.287 811.012,9.129 811.136,9.045C811.26,8.961 811.45,8.919 811.706,8.919C811.986,8.919 812.182,8.963 812.294,9.051C812.406,9.139 812.462,9.295 812.462,9.519L812.462,9.747C812.462,9.979 812.402,10.137 812.282,10.221C812.162,10.305 811.966,10.347 811.694,10.347Z" style="fill-rule:nonzero;stroke:white;stroke-width:0.25px;stroke-linecap:butt;stroke-miterlimit:2;"/>
            <path d="M816.122,17.667C816.122,18.123 816.034,18.517 815.858,18.849C815.682,19.181 815.446,19.439 815.15,19.623C814.854,19.807 814.522,19.899 814.154,19.899C813.954,19.899 813.792,19.833 813.668,19.701C813.544,19.569 813.482,19.411 813.482,19.227L813.482,19.095C813.482,18.919 813.54,18.779 813.656,18.675C813.772,18.571 813.918,18.491 814.094,18.435C814.286,18.371 814.422,18.281 814.502,18.165C814.582,18.049 814.632,17.911 814.652,17.751C814.672,17.591 814.682,17.423 814.682,17.247L814.682,11.859C814.682,11.651 814.75,11.477 814.886,11.337C815.022,11.197 815.194,11.127 815.402,11.127C815.61,11.127 815.782,11.197 815.918,11.337C816.054,11.477 816.122,11.651 816.122,11.859L816.122,17.667ZM815.378,10.347C815.106,10.347 814.914,10.303 814.802,10.215C814.69,10.127 814.634,9.971 814.634,9.747L814.634,9.519C814.634,9.287 814.696,9.129 814.82,9.045C814.944,8.961 815.134,8.919 815.39,8.919C815.67,8.919 815.866,8.963 815.978,9.051C816.09,9.139 816.146,9.295 816.146,9.519L816.146,9.747C816.146,9.979 816.086,10.137 815.966,10.221C815.846,10.305 815.65,10.347 815.378,10.347Z" style="fill-rule:nonzero;stroke:white;stroke-width:0.25px;stroke-linecap:butt;stroke-miterlimit:2;"/>
            <g transform="matrix(0.825452,0,0,0.825452,707.517,2.23401)">
                <path d="M139.609,11.534L139.609,8.68C139.609,8.428 139.692,8.218 139.857,8.048C140.021,7.878 140.23,7.794 140.482,7.794C140.734,7.794 140.942,7.876 141.107,8.041C141.272,8.205 141.354,8.419 141.354,8.68L141.354,17.665C141.354,17.917 141.272,18.127 141.107,18.297C140.942,18.467 140.734,18.551 140.482,18.551C140.23,18.551 140.021,18.467 139.857,18.297C139.695,18.131 139.613,17.926 139.61,17.681C139.491,17.812 139.345,17.943 139.173,18.072C138.941,18.246 138.667,18.394 138.352,18.515C138.037,18.636 137.695,18.697 137.327,18.697C136.658,18.697 136.053,18.525 135.51,18.181C134.967,17.837 134.538,17.362 134.223,16.756C133.908,16.15 133.751,15.455 133.751,14.67C133.751,13.875 133.908,13.175 134.223,12.569C134.538,11.963 134.962,11.489 135.495,11.144C136.028,10.8 136.62,10.628 137.269,10.628C137.686,10.628 138.068,10.691 138.417,10.817C138.766,10.943 139.069,11.103 139.326,11.297C139.43,11.376 139.525,11.455 139.609,11.534ZM137.545,17.098C137.972,17.098 138.345,16.991 138.665,16.778C138.984,16.565 139.234,16.274 139.413,15.905C139.593,15.537 139.682,15.125 139.682,14.67C139.682,14.205 139.593,13.788 139.413,13.42C139.234,13.051 138.984,12.761 138.665,12.547C138.345,12.334 137.972,12.228 137.545,12.228C137.128,12.228 136.76,12.334 136.44,12.547C136.12,12.761 135.871,13.051 135.692,13.42C135.512,13.788 135.423,14.205 135.423,14.67C135.423,15.125 135.512,15.537 135.692,15.905C135.871,16.274 136.12,16.565 136.44,16.778C136.76,16.991 137.128,17.098 137.545,17.098Z" style="fill-rule:nonzero;stroke:white;stroke-width:0.3px;stroke-linecap:butt;stroke-miterlimit:2;"/>
            </g>
            <path d="M826.994,17.535C826.762,17.535 826.584,17.473 826.46,17.349C826.336,17.225 826.274,17.047 826.274,16.815L826.274,16.611C826.274,16.379 826.336,16.201 826.46,16.077C826.584,15.953 826.762,15.891 826.994,15.891L827.15,15.891C827.382,15.891 827.56,15.953 827.684,16.077C827.808,16.201 827.87,16.379 827.87,16.611L827.87,16.815C827.87,17.047 827.808,17.225 827.684,17.349C827.56,17.473 827.382,17.535 827.15,17.535L826.994,17.535Z" style="fill-rule:nonzero;stroke:white;stroke-width:0.25px;stroke-linecap:butt;stroke-miterlimit:2;"/>
            <g transform="matrix(0.825452,0,0,0.825452,707.517,2.23401)">
                <path d="M96.259,24.444C96.307,24.381 96.36,24.316 96.419,24.249C96.583,24.06 96.777,23.883 97,23.718C97.223,23.554 97.475,23.42 97.756,23.319C98.037,23.217 98.342,23.166 98.672,23.166C99.389,23.166 99.934,23.316 100.307,23.617C100.681,23.917 100.937,24.317 101.078,24.816C101.218,25.315 101.289,25.87 101.289,26.48L101.289,30.202C101.289,30.454 101.206,30.665 101.042,30.834C100.877,31.004 100.668,31.089 100.416,31.089C100.164,31.089 99.956,31.004 99.791,30.834C99.627,30.665 99.544,30.454 99.544,30.202L99.544,26.48C99.544,26.161 99.503,25.872 99.421,25.615C99.338,25.359 99.19,25.153 98.977,24.998C98.764,24.843 98.459,24.765 98.061,24.765C97.674,24.765 97.347,24.843 97.08,24.998C96.814,25.153 96.61,25.359 96.469,25.615C96.329,25.872 96.259,26.161 96.259,26.48L96.259,30.202C96.259,30.454 96.176,30.665 96.012,30.834C95.847,31.004 95.638,31.089 95.386,31.089C95.134,31.089 94.926,31.004 94.761,30.834C94.597,30.665 94.514,30.454 94.514,30.202L94.514,24.198C94.514,23.946 94.597,23.735 94.761,23.566C94.926,23.396 95.134,23.311 95.386,23.311C95.638,23.311 95.847,23.396 96.012,23.566C96.176,23.735 96.259,23.946 96.259,24.198L96.259,24.444Z" style="fill-rule:nonzero;stroke:white;stroke-width:0.3px;stroke-linecap:butt;stroke-miterlimit:2;"/>
            </g>
            <g transform="matrix(0.825452,0,0,0.825452,707.517,2.23401)">
                <path d="M105.867,23.166L105.897,23.166C106.391,23.166 106.859,23.268 107.3,23.471C107.741,23.675 108.131,23.953 108.47,24.307C108.809,24.661 109.078,25.07 109.277,25.535C109.476,26.001 109.575,26.495 109.575,27.018C109.565,27.251 109.473,27.44 109.299,27.585C109.124,27.731 108.921,27.803 108.688,27.803L103.889,27.803C103.942,28.071 104.032,28.31 104.16,28.523C104.378,28.886 104.659,29.163 105.003,29.352C105.347,29.541 105.713,29.635 106.101,29.635C106.459,29.635 106.745,29.606 106.958,29.548C107.171,29.49 107.344,29.419 107.474,29.337C107.605,29.255 107.724,29.184 107.831,29.126C108.005,29.039 108.17,28.995 108.325,28.995C108.538,28.995 108.715,29.068 108.855,29.213C108.996,29.359 109.066,29.528 109.066,29.722C109.066,29.984 108.931,30.221 108.659,30.435C108.407,30.648 108.053,30.834 107.598,30.994C107.142,31.154 106.672,31.234 106.188,31.234C105.364,31.234 104.649,31.062 104.044,30.718C103.438,30.374 102.973,29.906 102.648,29.315C102.323,28.724 102.161,28.055 102.161,27.309C102.161,26.437 102.338,25.693 102.692,25.078C103.045,24.462 103.508,23.99 104.08,23.66C104.643,23.336 105.239,23.171 105.867,23.166ZM103.904,26.35C103.928,26.229 103.957,26.118 103.993,26.015C104.099,25.705 104.245,25.458 104.429,25.274C104.613,25.09 104.831,24.959 105.083,24.881C105.335,24.804 105.606,24.765 105.897,24.765C106.197,24.765 106.481,24.83 106.747,24.961C107.014,25.092 107.237,25.269 107.416,25.492C107.596,25.715 107.695,25.967 107.714,26.248L107.714,26.35L103.904,26.35Z" style="stroke:white;stroke-width:0.3px;stroke-linejoin:bevel;"/>
            </g>
            <g transform="matrix(0.825452,0,0,0.825452,707.517,2.23401)">
                <path d="M111.058,23.457L111.058,22.526C111.058,22.274 111.143,22.063 111.312,21.894C111.482,21.724 111.693,21.639 111.945,21.639C112.197,21.639 112.403,21.724 112.562,21.894C112.722,22.063 112.802,22.274 112.802,22.526L112.802,23.457L113.835,23.457C114.067,23.457 114.261,23.534 114.416,23.689C114.571,23.844 114.649,24.038 114.649,24.271C114.649,24.494 114.571,24.68 114.416,24.83C114.261,24.981 114.067,25.056 113.835,25.056L112.802,25.056L112.802,28.995C112.802,29.131 112.829,29.243 112.882,29.33C112.936,29.417 113.008,29.48 113.1,29.519C113.192,29.558 113.292,29.577 113.398,29.577C113.515,29.577 113.621,29.555 113.718,29.511C113.815,29.468 113.927,29.446 114.053,29.446C114.188,29.446 114.312,29.509 114.423,29.635C114.535,29.761 114.59,29.935 114.59,30.158C114.59,30.43 114.443,30.653 114.147,30.827C113.851,31.002 113.534,31.089 113.195,31.089C112.991,31.089 112.766,31.072 112.519,31.038C112.272,31.004 112.039,30.922 111.821,30.791C111.603,30.66 111.421,30.459 111.276,30.187C111.131,29.916 111.058,29.543 111.058,29.068L111.058,25.056L110.389,25.056C110.157,25.056 109.963,24.978 109.808,24.823C109.653,24.668 109.575,24.474 109.575,24.242C109.575,24.019 109.653,23.832 109.808,23.682C109.963,23.532 110.157,23.457 110.389,23.457L111.058,23.457Z" style="fill-rule:nonzero;stroke:white;stroke-width:0.3px;stroke-linecap:butt;stroke-miterlimit:2;"/>
            </g>
            <g transform="matrix(0.825452,0,0,0.825452,707.517,2.23401)">
                <path d="M122.366,28.044L123.924,23.864C124.04,23.495 124.321,23.311 124.767,23.311C124.99,23.311 125.183,23.396 125.348,23.566C125.513,23.735 125.595,23.951 125.595,24.213C125.595,24.28 125.59,24.341 125.581,24.394C125.571,24.448 125.557,24.498 125.537,24.547L123.313,30.536C123.245,30.73 123.124,30.878 122.95,30.98C122.775,31.082 122.591,31.118 122.397,31.089C122.068,31.069 121.82,30.885 121.656,30.536L120.413,26.96L119.242,30.536C119.078,30.885 118.831,31.069 118.501,31.089C118.317,31.118 118.135,31.082 117.956,30.98C117.777,30.878 117.653,30.73 117.585,30.536L115.361,24.547C115.322,24.44 115.303,24.329 115.303,24.213C115.303,23.98 115.38,23.772 115.535,23.587C115.69,23.403 115.904,23.311 116.175,23.311C116.359,23.311 116.524,23.355 116.669,23.442C116.815,23.529 116.916,23.67 116.975,23.864L118.546,28.125L119.693,25.012C119.848,24.654 120.115,24.474 120.493,24.474C120.706,24.474 120.868,24.52 120.98,24.612C121.091,24.704 121.181,24.838 121.249,25.012L122.366,28.044Z" style="fill-rule:nonzero;stroke:white;stroke-width:0.3px;stroke-linecap:butt;stroke-miterlimit:2;"/>
            </g>
            <path d="M817.898,24.692C817.898,25.348 817.752,25.926 817.46,26.426C817.168,26.926 816.776,27.316 816.284,27.596C815.792,27.876 815.242,28.016 814.634,28.016C814.026,28.016 813.476,27.876 812.984,27.596C812.492,27.316 812.1,26.926 811.808,26.426C811.516,25.926 811.37,25.348 811.37,24.692C811.37,24.036 811.516,23.458 811.808,22.958C812.1,22.458 812.492,22.066 812.984,21.782C813.476,21.498 814.026,21.356 814.634,21.356C815.242,21.356 815.792,21.498 816.284,21.782C816.776,22.066 817.168,22.458 817.46,22.958C817.752,23.458 817.898,24.036 817.898,24.692ZM816.458,24.692C816.458,24.284 816.376,23.93 816.212,23.63C816.048,23.33 815.828,23.096 815.552,22.928C815.276,22.76 814.97,22.676 814.634,22.676C814.298,22.676 813.992,22.76 813.716,22.928C813.44,23.096 813.22,23.33 813.056,23.63C812.892,23.93 812.81,24.284 812.81,24.692C812.81,25.092 812.892,25.442 813.056,25.742C813.22,26.042 813.44,26.276 813.716,26.444C813.992,26.612 814.298,26.696 814.634,26.696C814.97,26.696 815.276,26.612 815.552,26.444C815.828,26.276 816.048,26.042 816.212,25.742C816.376,25.442 816.458,25.092 816.458,24.692Z" style="fill-rule:nonzero;stroke:white;stroke-width:0.25px;stroke-linecap:butt;stroke-miterlimit:2;"/>
            <g transform="matrix(0.825452,0,0,0.825452,707.517,2.23401)">
                <path d="M136.484,24.393C136.572,24.24 136.677,24.099 136.796,23.973C136.966,23.793 137.157,23.643 137.371,23.522C137.584,23.401 137.812,23.311 138.054,23.253C138.296,23.195 138.539,23.166 138.781,23.166C139.072,23.166 139.316,23.248 139.515,23.413C139.714,23.578 139.813,23.772 139.813,23.995C139.813,24.314 139.731,24.545 139.566,24.685C139.401,24.826 139.222,24.896 139.028,24.896C138.844,24.896 138.677,24.862 138.526,24.794C138.376,24.726 138.204,24.692 138.01,24.692C137.836,24.692 137.659,24.733 137.48,24.816C137.3,24.898 137.136,25.027 136.985,25.201C136.835,25.376 136.714,25.591 136.622,25.848C136.53,26.105 136.484,26.408 136.484,26.757L136.484,30.202C136.484,30.454 136.402,30.665 136.237,30.834C136.072,31.004 135.864,31.089 135.612,31.089C135.36,31.089 135.151,31.004 134.987,30.834C134.822,30.665 134.739,30.454 134.739,30.202L134.739,24.198C134.739,23.946 134.822,23.735 134.987,23.566C135.151,23.396 135.36,23.311 135.612,23.311C135.864,23.311 136.072,23.396 136.237,23.566C136.402,23.735 136.484,23.946 136.484,24.198L136.484,24.393Z" style="fill-rule:nonzero;stroke:white;stroke-width:0.3px;stroke-linecap:butt;stroke-miterlimit:2;"/>
            </g>
            <g transform="matrix(0.825452,0,0,0.825452,707.517,2.23401)">
                <path d="M142.357,28.673L142.357,30.202C142.357,30.454 142.275,30.665 142.11,30.834C141.945,31.004 141.737,31.089 141.485,31.089C141.233,31.089 141.024,31.004 140.86,30.834C140.695,30.665 140.613,30.454 140.613,30.202L140.613,21.218C140.613,20.966 140.695,20.755 140.86,20.585C141.024,20.416 141.233,20.331 141.485,20.331C141.737,20.331 141.945,20.416 142.11,20.585C142.275,20.755 142.357,20.966 142.357,21.218L142.357,26.59L145.468,23.587C145.652,23.403 145.865,23.311 146.108,23.311C146.331,23.311 146.524,23.403 146.689,23.587C146.854,23.772 146.936,23.951 146.936,24.125C146.936,24.358 146.82,24.576 146.587,24.78L144.396,26.796L146.936,29.562C147.121,29.756 147.213,29.974 147.213,30.217C147.213,30.469 147.113,30.674 146.915,30.834C146.716,30.994 146.52,31.074 146.326,31.074C146.074,31.074 145.861,30.977 145.686,30.784L143.072,28.014L142.357,28.673Z" style="fill-rule:nonzero;stroke:white;stroke-width:0.3px;stroke-linecap:butt;stroke-miterlimit:2;"/>
            </g>
        </g>
    </g>
    <defs>
        <linearGradient id="_Linear2" x1="0" y1="0" x2="1" y2="0" gradientUnits="userSpaceOnUse" gradientTransform="matrix(-1.19753e-12,28.8833,-28.8833,-1.19753e-12,704.656,1.55834)"><stop offset="0" style="stop-color:rgb(232,132,48);stop-opacity:1"/><stop offset="1" style="stop-color:rgb(194,86,0);stop-opacity:1"/></linearGradient>
    </defs>
</svg>
